<svg xmlns="http://www.w3.org/2000/svg" viewBox="0 0 429.67 411.88"><defs><style>.cls-1{fill:#fff;}</style></defs><g id="Layer_2" data-name="Layer 2"><g id="Layer_1-2" data-name="Layer 1"><path class="cls-1" d="M340.11,411.88H14c.32-18.82.6-37.65.95-56.47.54-29.22,3.24-58.28,9.87-86.73C31.67,239.32,41.7,210.86,53.2,183c10-24.3,22.72-47.17,40.32-66.82C119.1,87.6,145.93,60.22,180.26,41.9c11.55-6.17,23.5-12.38,36-15.77A384.71,384.71,0,0,1,271.62,15.7a266.93,266.93,0,0,1,88,4.27c4.22.91,8.41,2,12.6,3,13.05,3.19,25.42,8,36.23,16.11,9.11,6.82,9,16.5,0,23.75-7.62,6.16-16.18,11-25.78,12.59-19.86,3.31-39.79,7.43-59.81,8.19-45.92,1.75-92,3.23-137.7-3.66-3.6-.54-7.1-1.81-10.71-2.36-4.39-.66-7.5,1.22-8.64,5.66-1.07,4.17.8,7.07,5.43,8.7a14.06,14.06,0,0,0,2.9.75c18.85,2.15,37.68,5.87,56.54,6.09,43.45.5,87,2.28,130.26-4.34,4-.6,5.71,1.24,5.37,5.06-.57,6.29-.88,12.65-2,18.85-3.86,21.26-8.19,42.43-12,63.7-3.14,17.51-5.95,35.09-8.58,52.68A207.11,207.11,0,0,0,341.47,259c-.55,18.65-.69,37.32-.89,56q-.49,47.49-.84,95A10.4,10.4,0,0,0,340.11,411.88ZM185.86,185.75c-1.94-.69-2.54-1-3.17-1.12-2.23-.54-4.48-1-6.72-1.56-.32,2.48-1.51,5.25-.8,7.38a111.09,111.09,0,0,0,6.91,16c2.09,4,2.67,7.64.43,11.8-3.46,6.44-6.42,13.15-9.9,19.57-9.64,17.83-18.53,36.11-30.86,52.36-4.61,6.08-7.2,6.14-11.74-.11-6-8.21-12-16.39-18-24.6-7.24-9.95-14.54-19.85-21.65-29.9C84.81,227.67,79.51,219.6,74,211.65c-2.45-3.56-5.43-5.8-10.14-4.14-6.68,2.36-8.63,7.84-4.37,14.42,5,7.81,10.54,15.33,15.93,22.91q10.26,14.43,20.66,28.75c8.86,12.28,18,24.34,26.52,36.86,5.26,7.75,11.46,9.31,19.21,4,10.07-6.86,17-16.59,23-26.64,10.32-17.26,19.54-35.18,29-52.92,3-5.65,5-10.45,13.83-8.16,9.31,2.41,15.61-4.62,15.58-14.5a7,7,0,0,1,1-3.21c2.92-5.28,2.19-16.52-2.28-20.49-2.32-2.06-6.07-2.69-9.29-3.49-1.59-.4-3.45.3-6,.6.5-3,.68-5.29,1.27-7.44,1.73-6.25,3.74-12.43,5.42-18.7.9-3.37.34-6.62-3.67-7.48-3.85-.83-4.61,2.54-5.47,5.15-1.78,5.36-3.28,10.82-5,16.2-.45,1.39-1.44,2.62-2.85,5.11a38.34,38.34,0,0,1-1.5-5c-.41-3.14-.16-6.46-1.13-9.38-.58-1.75-3-2.91-4.54-4.33-1.42,1.61-3.47,3-4.09,4.89-.68,2.08-.11,4.6,0,6.92C185.32,176,185.58,180.42,185.86,185.75ZM246.09,55c4.33,0,8.16-3.57,8.21-7.67s-3.91-8-8-8.12a7.8,7.8,0,0,0-7.86,7.88C238.43,52,241.34,55,246.09,55ZM370.43,42.5c-.12-4-4.29-7.59-8.52-7.43a7.67,7.67,0,0,0-7.66,8.1c.15,4.09,3.59,7.06,8.12,7S370.57,46.72,370.43,42.5Z"/><path d="M340.11,411.88a10.4,10.4,0,0,1-.37-2q.39-47.48.84-95c.2-18.65.34-37.32.89-56a207.11,207.11,0,0,1,2.28-24.22c2.63-17.59,5.44-35.17,8.58-52.68,3.81-21.27,8.14-42.44,12-63.7,1.12-6.2,1.43-12.56,2-18.85.34-3.82-1.42-5.66-5.37-5.06-43.24,6.62-86.81,4.84-130.26,4.34-18.86-.22-37.69-3.94-56.54-6.09a14.06,14.06,0,0,1-2.9-.75c-4.63-1.63-6.5-4.53-5.43-8.7,1.14-4.44,4.25-6.32,8.64-5.66,3.61.55,7.11,1.82,10.71,2.36,45.74,6.89,91.78,5.41,137.7,3.66,20-.76,39.95-4.88,59.81-8.19,9.6-1.6,18.16-6.43,25.78-12.59,9-7.25,9.07-16.93,0-23.75C397.62,31,385.25,26.18,372.2,23c-4.19-1-8.38-2.11-12.6-3a266.93,266.93,0,0,0-88-4.27,384.71,384.71,0,0,0-55.34,10.43c-12.52,3.39-24.47,9.6-36,15.77-34.33,18.32-61.16,45.7-86.74,74.27C75.92,135.82,63.23,158.69,53.2,183c-11.5,27.87-21.53,56.33-28.38,85.69-6.63,28.45-9.33,57.51-9.87,86.73-.35,18.82-.63,37.65-.95,56.47H0c.23-7.48.5-15,.69-22.44.54-22.31.38-44.66,1.74-66.92,1.81-29.5,8-58.23,16.65-86.56a597.94,597.94,0,0,1,35.34-88.9,130.53,130.53,0,0,1,22.13-32.5c13.6-14.35,26.43-29.52,40.82-43,13.54-12.71,27.9-24.86,43.31-35.16,17.55-11.72,37-19.87,57.69-25.58C249.21,2.25,280.49-.81,312.24.18c30.3.94,60.07,5.47,88.16,17.5,9.25,4,18,9.06,24.71,17.26,7.41,9,5.81,28.57-5,37.18-9.67,7.72-20.26,13.93-32.42,17.17-7.48,2-7,2.36-7.56,9.95-.74,10.43-2,20.87-3.7,31.19q-8.06,49-16.62,97.9c-4.57,26.39-4.19,53-4.31,79.63-.17,33.81-.95,67.61-1.46,101.42,0,.83,0,1.66,0,2.5Z"/><path d="M185.86,185.75c-.28-5.33-.54-9.74-.74-14.15-.1-2.32-.67-4.84,0-6.92.62-1.88,2.67-3.28,4.09-4.89,1.57,1.42,4,2.58,4.54,4.33,1,2.92.72,6.24,1.13,9.38a38.34,38.34,0,0,0,1.5,5c1.41-2.49,2.4-3.72,2.85-5.11,1.75-5.38,3.25-10.84,5-16.2.86-2.61,1.62-6,5.47-5.15,4,.86,4.57,4.11,3.67,7.48-1.68,6.27-3.69,12.45-5.42,18.7-.59,2.15-.77,4.42-1.27,7.44,2.59-.3,4.45-1,6-.6,3.22.8,7,1.43,9.29,3.49,4.47,4,5.2,15.21,2.28,20.49a7,7,0,0,0-1,3.21c0,9.88-6.27,16.91-15.58,14.5-8.84-2.29-10.8,2.51-13.83,8.16-9.5,17.74-18.72,35.66-29,52.92-6,10.05-13,19.78-23,26.64-7.75,5.3-13.95,3.74-19.21-4-8.5-12.52-17.66-24.58-26.52-36.86q-10.37-14.34-20.66-28.75c-5.39-7.58-10.88-15.1-15.93-22.91-4.26-6.58-2.31-12.06,4.37-14.42,4.71-1.66,7.69.58,10.14,4.14,5.47,7.95,10.77,16,16.35,23.89,7.11,10.05,14.41,20,21.65,29.9,6,8.21,12,16.39,18,24.6,4.54,6.25,7.13,6.19,11.74.11,12.33-16.25,21.22-34.53,30.86-52.36,3.48-6.42,6.44-13.13,9.9-19.57,2.24-4.16,1.66-7.77-.43-11.8a111.09,111.09,0,0,1-6.91-16c-.71-2.13.48-4.9.8-7.38,2.24.52,4.49,1,6.72,1.56C183.32,184.78,183.92,185.06,185.86,185.75Zm22.2,31.35c3.63.08,10.56-6.23,10-9.37a50.53,50.53,0,0,0-2.29-9.1c-1.06-2.83-3.63-4.78-6.13-2.21a40.91,40.91,0,0,0-8.28,11.51C199.31,212.64,203,217,208.06,217.1Z"/><path d="M246.09,55c-4.75,0-7.66-3-7.66-7.91a7.8,7.8,0,0,1,7.86-7.88c4.1.11,8.06,4.13,8,8.12S250.42,55,246.09,55Z"/><path d="M370.43,42.5c.14,4.22-3.45,7.64-8.06,7.69s-8-2.93-8.12-7a7.67,7.67,0,0,1,7.66-8.1C366.14,34.91,370.31,38.54,370.43,42.5Z"/><path class="cls-1" d="M208.06,217.1c-5.1-.13-8.75-4.46-6.67-9.17a40.91,40.91,0,0,1,8.28-11.51c2.5-2.57,5.07-.62,6.13,2.21a50.53,50.53,0,0,1,2.29,9.1C218.62,210.87,211.69,217.18,208.06,217.1Z"/></g></g></svg>