<svg xmlns="http://www.w3.org/2000/svg" viewBox="0 0 928 292.03"><defs><style>.cls-1,.cls-3{fill:none;stroke:#fff;stroke-miterlimit:10;}.cls-1{stroke-linecap:round;stroke-width:21px;}.cls-2{fill:#fff;}.cls-3{stroke-width:11px;}</style></defs><g id="Layer_2" data-name="Layer 2"><g id="Layer_1-2" data-name="Layer 1"><line class="cls-1" x1="10.5" y1="10.5" x2="71.64" y2="10.83"/><line class="cls-1" x1="310.5" y1="211.5" x2="395.5" y2="44.5"/><line class="cls-1" x1="310.41" y1="211.3" x2="126.5" y2="211.5"/><line class="cls-1" x1="77.45" y1="44.53" x2="395.5" y2="44.5"/><line class="cls-1" x1="98.68" y1="162.96" x2="331.51" y2="162.55"/><path class="cls-2" d="M476.32,44.19c12.23,0,21.4,4.94,30.1,16.7,12.7,11,14.58,19.28,14.58,30.33,0,27.51-59.49,49.85-82.54,68.43-.94.94-4.23,4.7-4.23,8.7,0,9.64,10.82,42.56,21.63,47,2.59.94,4.47,1.88,4.47,3.06,0,4-12.46,9.88-16,9.88-20.69,0-35.27-32.92-40.68-53.15a1.78,1.78,0,0,0-1.88-1.41,4.24,4.24,0,0,0-3.53,2.36c-7.05,10.34-17.16,35.5-28.92,54.78-1.64,3.53-3.52,4.47-5.41,4.47-5.64,0-20.92-8.94-20.92-15.75,13.87-29.16,77.83-153.08,81.12-163,2.35-7.53,6.35-9.41,10.82-9.41s9.4,1.88,13.63,1.88C456.1,49.13,466.21,44.19,476.32,44.19Zm-56,99.94a1.4,1.4,0,0,0,.94-.24c19-13.64,60-43.26,68.66-59.72a6.5,6.5,0,0,0,.94-3.3c0-3.05-3.76-4.23-8.94-4.23-9.64,0-19.28,3.29-27.51,8.23-6.82,9.41-35,51.26-35,57.38C419.42,143.42,419.65,144.13,420.36,144.13Z"/><path class="cls-2" d="M493.72,201.74a69,69,0,0,0-.71,9.64c0,5.17,2.35,8.23,7.53,8.23,16.22,0,34.8-17.17,50.55-35.27,6.82-7.76,29.86-36.22,34.1-42.09.7-.95,1.17-1.42,1.88-1.42,2.11,0,3.52,4.47,3.52,4.47-6.34,10.11-20.22,29.63-33.62,48-16.22,22.1-38.8,40.91-53.61,40.91-8.94,0-31.28-13.4-31.28-31.27,0-35.27,33.39-87.71,59-87.71,8,0,9.41,12.47,16.46,17.17,4.71,3.06,13.64,4.23,13.64,16.22C561.2,159.88,513.94,191.15,493.72,201.74Zm46.08-56.67a8.11,8.11,0,0,0-2.35-.47c-16.46,4-32.21,23-39.74,43.5C526.4,168.58,535.34,154,539.8,145.07Z"/><path class="cls-2" d="M654.78,151.89c-5.64,0-14.34-12.47-14.34-18.11a12.53,12.53,0,0,1,1.88-6.35c2.82-4.7,16-28.69,19.75-34.8a3.75,3.75,0,0,0,.71-1.88c0-.71-.47-.94-1.18-.94-13.87,0-43.73,26.81-43.73,46.09,0,18.81,23.75,41.85,23.75,68.42,0,19.75-15.52,28-33.63,28-25.39,0-56.2-16.22-56.2-39.26,0-3.77,2.82-11.06,7.53-11.06,1.17,0,2.35.47,3.76,2.12,7,7.76,22.57,23.28,38.09,23.28,3.76,0,9.41-.47,9.41-5.64,0-12.94-24-48.44-24-76.42,0-26.81,40.92-81.83,79.48-81.83,7.29,0,16,2.11,18.81,12.69,7.76,4.47,15.76,17.88,15.76,27.75a20.48,20.48,0,0,1-2.12,8.7c-1.88,3.06-20.93,32.69-39,56.2C657.84,151,656.19,151.89,654.78,151.89Z"/><path class="cls-2" d="M709.33,79a33.7,33.7,0,0,0-4-16.69c-.71-1.65-1.42-2.59-1.42-3.53s.71-1.88,2.59-2.82a40,40,0,0,1,17.17-4.47c8.7,0,16.93,4.47,16.93,20,0,28.45-38.57,78.77-51,102.52q-2.12,3.88-2.12,5.64c0,.71,1.18,1.88,1.18,1.88,16.46-25.63,38.8-44.2,47.26-49.38a6,6,0,0,1,2.35-.47c6.59,0,21.17,5.65,21.17,15.29a12.68,12.68,0,0,1-2.82,7.76c-8,10.58-39,40-39,55.49,0,3.76,1.18,5.41,3.53,5.41,6.58,0,20.93-13.64,36-31.27,6.81-7.76,29.86-36.22,34.09-42.09.71-.95,1.18-1.42,1.88-1.42,2.12,0,3.53,4.47,3.53,4.47-6.35,10.11-20.69,29.63-33.63,48-15.28,21.87-40.67,44.44-54.55,44.44-5.88,0-9.87-4.23-9.87-14.34,0-15.76,12-43.27,22.33-64.2-18.1,3.06-47.49,59-51.49,70.55-1.18,3.29-3.06,4.7-5.64,4.7-3.53,0-17.87-7-17.87-16.23a9.23,9.23,0,0,1,.7-3.29C668.42,162.7,709.33,113.56,709.33,79Z"/><path class="cls-2" d="M821.72,124.61c12,0,20.46,9.88,20.46,17.64,0,4.23-6.82,19-16.46,35.27h.47c6.59,0,14.58-3.53,22.1-12.23,7.06-8.23,17.17-19,20-23,.71-.95,1.18-1.42,1.88-1.42,2.12,0,3.53,4.47,3.53,4.47-4.23,6.82-11.29,17.4-18.11,27C845.94,186,833,192.09,822.2,192.09a18.49,18.49,0,0,1-5.18-.47c-14.11,21.17-31,40.92-42.79,40.92-15.05,0-20.93-9.64-20.93-23.75,0-34.8,35.51-95.23,53.38-95.23C812.08,113.56,815.61,120.85,821.72,124.61ZM802.91,181a21.71,21.71,0,0,1-1.88-8.93c0-4.94,1.18-10.58,4.47-17.17h-.71c-10.11,0-35,34.57-35,61.61,0,2.12.94,3.06,2.35,3.06C778.46,219.61,794,198.91,802.91,181Z"/><path class="cls-2" d="M898.84,130.25c5.88-1.41,11.76-2.82,16.93-2.82,7.06,0,12.23,2.82,12.23,12.46,0,24.69-34.09,87.24-60,87.24-5.88,0-11.29-3.06-15.75-10.58-8.7,18.1-18.11,40.44-29.87,70.31-1.41,3.76-2.35,5.17-5.64,5.17-3.53,0-17.87-7.06-17.87-16.23a9.26,9.26,0,0,1,.71-3.29C833,209.73,853.46,166,873,118c2.12-5.41,7.29-6.59,11.29-6.59,7.05,0,15.05,8.23,15.05,16.23A8.23,8.23,0,0,1,898.84,130.25Zm-41.38,75.48c2.82,3.06,5.64,4.23,8.47,4.23,7.75,0,32.44-38.79,32.44-53.61,0-3.52-1.41-5.64-4.7-5.64a48.35,48.35,0,0,0-6.58.71C877,168.82,867.81,184.81,857.46,205.73Z"/><circle class="cls-3" cx="147.58" cy="253.01" r="21.92"/><circle class="cls-3" cx="284.81" cy="253.3" r="21.92"/></g></g></svg>