<svg xmlns="http://www.w3.org/2000/svg" viewBox="0 0 585 248.54"><defs><style>.cls-1{fill:#000222;}</style></defs><g id="Layer_2" data-name="Layer 2"><g id="Layer_1-2" data-name="Layer 1"><path class="cls-1" d="M133.32.71c12.23,0,21.4,4.93,30.1,16.69C176.12,28.45,178,36.68,178,47.73c0,27.51-59.49,49.85-82.53,68.43-.94.94-4.24,4.7-4.24,8.7,0,9.64,10.82,42.56,21.64,47,2.58.94,4.46,1.88,4.46,3.05,0,4-12.46,9.88-16,9.88-20.69,0-35.27-32.92-40.67-53.14a1.79,1.79,0,0,0-1.89-1.41,4.21,4.21,0,0,0-3.52,2.35C48.2,143,38.09,168.12,26.34,187.41c-1.65,3.52-3.53,4.46-5.41,4.46C15.28,191.87,0,182.94,0,176.12,13.87,147,77.83,23,81.12,13.17c2.35-7.53,6.35-9.41,10.82-9.41s9.4,1.88,13.64,1.88C113.1,5.64,123.21.71,133.32.71Zm-56,99.93a1.38,1.38,0,0,0,.94-.24c19-13.63,60-43.26,68.66-59.72a6.39,6.39,0,0,0,.94-3.29c0-3.06-3.76-4.24-8.93-4.24-9.64,0-19.28,3.3-27.51,8.23-6.82,9.41-35,51.26-35,57.38C76.42,99.93,76.65,100.64,77.36,100.64Z"/><path class="cls-1" d="M150.72,158.25a69,69,0,0,0-.71,9.64c0,5.17,2.36,8.23,7.53,8.23,16.22,0,34.8-17.17,50.55-35.27,6.82-7.76,29.87-36.21,34.1-42.09.7-.94,1.17-1.41,1.88-1.41,2.12,0,3.53,4.46,3.53,4.46-6.35,10.12-20.22,29.63-33.63,48-16.22,22.11-38.8,40.92-53.61,40.92-8.93,0-31.27-13.41-31.27-31.28,0-35.27,33.39-87.7,59-87.7,8,0,9.4,12.46,16.46,17.16,4.7,3.06,13.63,4.23,13.63,16.23C218.2,116.39,170.94,147.67,150.72,158.25Zm46.09-56.67a8.24,8.24,0,0,0-2.35-.47c-16.46,4-32.22,23-39.74,43.5C183.4,125.09,192.34,110.51,196.81,101.58Z"/><path class="cls-1" d="M311.79,108.4c-5.65,0-14.35-12.46-14.35-18.11a12.53,12.53,0,0,1,1.88-6.35c2.83-4.7,16-28.68,19.76-34.8a3.72,3.72,0,0,0,.7-1.88c0-.7-.47-.94-1.18-.94-13.87,0-43.73,26.81-43.73,46.09,0,18.81,23.75,41.85,23.75,68.42,0,19.76-15.52,28-33.63,28-25.39,0-56.19-16.23-56.19-39.27,0-3.76,2.82-11.05,7.52-11.05,1.18,0,2.35.47,3.76,2.11,7.06,7.76,22.58,23.28,38.09,23.28,3.77,0,9.41-.47,9.41-5.64,0-12.93-24-48.44-24-76.42C243.6,55,284.51,0,323.07,0c7.29,0,16,2.12,18.81,12.7,7.76,4.47,15.76,17.87,15.76,27.74a20.48,20.48,0,0,1-2.12,8.7c-1.88,3.06-20.93,32.69-39,56.2C314.84,107.46,313.2,108.4,311.79,108.4Z"/><path class="cls-1" d="M366.33,35.51a33.74,33.74,0,0,0-4-16.7c-.71-1.64-1.41-2.59-1.41-3.53s.7-1.88,2.58-2.82A40.12,40.12,0,0,1,380.68,8c8.7,0,16.93,4.47,16.93,20,0,28.45-38.56,78.77-51,102.52q-2.11,3.88-2.11,5.64c0,.71,1.17,1.89,1.17,1.89,16.46-25.63,38.8-44.21,47.27-49.38a5.81,5.81,0,0,1,2.35-.47c6.58,0,21.16,5.64,21.16,15.28a12.68,12.68,0,0,1-2.82,7.76c-8,10.58-39,40-39,55.49,0,3.76,1.18,5.41,3.53,5.41,6.59,0,20.93-13.64,36-31.27,6.82-7.76,29.86-36.21,34.09-42.09.71-.94,1.18-1.41,1.88-1.41,2.12,0,3.53,4.46,3.53,4.46-6.35,10.12-20.69,29.63-33.62,48-15.29,21.87-40.68,44.44-54.56,44.44-5.87,0-9.87-4.23-9.87-14.34,0-15.75,12-43.26,22.34-64.19-18.11,3.06-47.5,59-51.5,70.54-1.17,3.29-3.06,4.7-5.64,4.7-3.53,0-17.87-7.05-17.87-16.22a9.19,9.19,0,0,1,.7-3.29C325.42,119.21,366.33,70.07,366.33,35.51Z"/><path class="cls-1" d="M478.73,81.12c12,0,20.45,9.88,20.45,17.64,0,4.23-6.82,19-16.46,35.27h.47c6.59,0,14.58-3.53,22.11-12.23,7.05-8.23,17.16-19,20-23,.71-.94,1.18-1.41,1.89-1.41,2.11,0,3.52,4.46,3.52,4.46-4.23,6.82-11.28,17.4-18.1,27.05C503,142.49,490,148.61,479.2,148.61a18.52,18.52,0,0,1-5.18-.47c-14.1,21.16-31,40.91-42.79,40.91-15.05,0-20.93-9.64-20.93-23.75,0-34.8,35.51-95.23,53.38-95.23C469.09,70.07,472.61,77.36,478.73,81.12Zm-18.81,56.44a21.64,21.64,0,0,1-1.89-8.94,38,38,0,0,1,4.47-17.16h-.7c-10.11,0-35,34.56-35,61.6,0,2.12.94,3.06,2.35,3.06C435.46,176.12,451,155.43,459.92,137.56Z"/><path class="cls-1" d="M555.85,86.77c5.88-1.42,11.75-2.83,16.93-2.83,7.05,0,12.22,2.83,12.22,12.47,0,24.69-34.09,87.23-60,87.23-5.87,0-11.28-3-15.75-10.58-8.7,18.11-18.11,40.44-29.86,70.31-1.41,3.76-2.35,5.17-5.65,5.17-3.52,0-17.87-7-17.87-16.22a9.31,9.31,0,0,1,.71-3.3C490,166.24,510.47,122.51,530,74.54c2.12-5.41,7.29-6.58,11.29-6.58,7.05,0,15.05,8.22,15.05,16.22A8.66,8.66,0,0,1,555.85,86.77Zm-41.39,75.48c2.82,3.05,5.65,4.23,8.47,4.23,7.76,0,32.45-38.8,32.45-53.61,0-3.53-1.41-5.65-4.71-5.65a48.51,48.51,0,0,0-6.58.71C534,125.33,524.81,141.32,514.46,162.25Z"/></g></g></svg>